<svg width="23" height="25" viewBox="0 0 23 25" fill="none" xmlns="http://www.w3.org/2000/svg">
<path d="M6.91921 3.03495C6.8349 3.03567 6.79235 2.99306 6.7707 2.92573C6.54413 1.90263 6.55795 1.87797 5.33358 1.68586C5.24916 1.67432 5.1996 1.63177 5.19897 1.55811C5.19834 1.48447 5.24717 1.44108 5.33137 1.42808C6.54517 1.20292 6.50983 1.17866 6.74711 0.163879C6.76761 0.096191 6.80943 0.052859 6.89374 0.0521392C6.97807 0.0514191 7.02059 0.0940309 7.04224 0.161359C7.29682 1.17194 7.25488 1.19686 8.47937 1.4012C8.55676 1.41282 8.61334 1.45532 8.61397 1.52895C8.6146 1.60261 8.55875 1.64607 8.48157 1.65898C7.26075 1.88425 7.27492 1.89639 7.06583 2.92321C7.04533 2.9909 7.00354 3.03423 6.91921 3.03495ZM10.3562 7.22846C10.2227 7.2296 10.1307 7.15672 10.1157 7.04638C9.84877 5.40983 9.78554 5.41037 7.84336 5.10167C7.71671 5.08431 7.62476 5.01145 7.62377 4.89485C7.62282 4.78437 7.71346 4.7038 7.8398 4.68431C9.77721 4.43453 9.84701 4.37868 10.0787 2.7072C10.0918 2.59663 10.1824 2.51606 10.316 2.51492C10.4424 2.51384 10.5345 2.59285 10.5495 2.70933C10.7954 4.35217 10.8938 4.3452 12.8218 4.64177C12.9485 4.66525 13.0405 4.73811 13.0414 4.84859C13.0424 4.97132 12.9517 5.03961 12.7972 5.05937C10.8883 5.34572 10.8043 5.38941 10.5864 7.03008C10.5734 7.15294 10.4827 7.22738 10.3562 7.22846ZM5.65007 14.0633C5.46737 14.0648 5.33287 13.9494 5.29635 13.784C4.76872 10.4249 4.2233 9.92011 0.411656 9.58437C0.214735 9.56764 0.0801302 9.43989 0.0787678 9.28033C0.0774053 9.12076 0.209861 8.99685 0.406416 8.97064C4.21177 8.56986 4.74849 8.05584 5.21868 4.68828C5.25237 4.52227 5.38493 4.41065 5.56764 4.40909C5.75034 4.40753 5.88479 4.51687 5.9143 4.68234C6.44193 8.04138 6.99436 8.5461 10.799 8.8819C11.003 8.9047 11.1375 9.02632 11.1389 9.1859C11.1403 9.34545 11.0078 9.47548 10.8043 9.49563C7.01351 9.9638 6.49033 10.4163 5.99196 13.778C5.96528 13.944 5.83277 14.0617 5.65007 14.0633Z" fill="black"/>
<g clip-path="url(#clip0_111_461)">
<path d="M16.0201 18.6307L8.80343 18.6923C8.61203 18.6939 8.42909 18.7675 8.29484 18.897C8.1606 19.0264 8.08605 19.201 8.0876 19.3824C8.08915 19.5638 8.16667 19.7371 8.3031 19.8642C8.43954 19.9913 8.62371 20.0618 8.81511 20.0602L16.0318 19.9986C16.2232 19.9969 16.4062 19.9233 16.5404 19.7939C16.6746 19.6645 16.7492 19.4899 16.7476 19.3085C16.7461 19.1271 16.6686 18.9537 16.5321 18.8266C16.3957 18.6995 16.2115 18.629 16.0201 18.6307ZM8.74503 11.8527L14.5184 11.8034C14.7098 11.8018 14.8927 11.7282 15.027 11.5987C15.1612 11.4693 15.2358 11.2947 15.2342 11.1133C15.2327 10.9319 15.1552 10.7586 15.0187 10.6315C14.8823 10.5044 14.6981 10.4339 14.5067 10.4355L8.73335 10.4848C8.54195 10.4864 8.35901 10.5601 8.22476 10.6895C8.09052 10.8189 8.01597 10.9935 8.01752 11.1749C8.01907 11.3563 8.09659 11.5296 8.23302 11.6567C8.36946 11.7839 8.55363 11.8543 8.74503 11.8527ZM8.76839 14.5885L14.5418 14.5392C14.7332 14.5376 14.9161 14.464 15.0503 14.3346C15.1846 14.2051 15.2591 14.0305 15.2576 13.8491C15.256 13.6677 15.1785 13.4944 15.0421 13.3673C14.9056 13.2402 14.7215 13.1697 14.5301 13.1713L8.75671 13.2206C8.56531 13.2223 8.38237 13.2959 8.24812 13.4253C8.11388 13.5547 8.03933 13.7294 8.04088 13.9107C8.04243 14.0921 8.11995 14.2655 8.25638 14.3926C8.39282 14.5197 8.57699 14.5902 8.76839 14.5885ZM21.7701 15.8455L8.78007 15.9565C8.58867 15.9581 8.40573 16.0317 8.27148 16.1611C8.13724 16.2906 8.06269 16.4652 8.06424 16.6466C8.06579 16.828 8.14331 17.0013 8.27974 17.1284C8.41618 17.2555 8.60035 17.326 8.79175 17.3244L21.7818 17.2135C21.9732 17.2118 22.1562 17.1382 22.2904 17.0088C22.4246 16.8793 22.4992 16.7047 22.4976 16.5233C22.4961 16.3419 22.4186 16.1686 22.2821 16.0415C22.1457 15.9144 21.9615 15.8439 21.7701 15.8455ZM21.7117 9.00597L17.3817 9.04294C17.1903 9.04457 17.0074 9.1182 16.8731 9.24762C16.7389 9.37705 16.6643 9.55166 16.6659 9.73306L16.7009 13.8368C16.7025 14.0182 16.78 14.1915 16.9164 14.3186C17.0529 14.4457 17.237 14.5162 17.4284 14.5146L21.7585 14.4776C21.9499 14.476 22.1328 14.4024 22.267 14.2729C22.4013 14.1435 22.4758 13.9689 22.4743 13.7875L22.4392 9.68376C22.4377 9.50237 22.3602 9.32905 22.2237 9.20194C22.0873 9.07483 21.9031 9.00433 21.7117 9.00597ZM21.0251 13.1159L18.1384 13.1405L18.1151 10.4047L21.0017 10.38L21.0251 13.1159Z" fill="black"/>
</g>
<defs>
<clipPath id="clip0_111_461">
<rect width="19" height="19" fill="white" transform="translate(2.97656 5.13672) rotate(-0.489216)"/>
</clipPath>
</defs>
</svg>
