<svg width="22" height="21" viewBox="0 0 22 21" fill="none" xmlns="http://www.w3.org/2000/svg">
<path d="M6.9153 3.03495C6.83099 3.03567 6.78844 2.99306 6.76679 2.92573C6.54023 1.90263 6.55405 1.87797 5.32967 1.68586C5.24526 1.67432 5.19569 1.63177 5.19506 1.55811C5.19443 1.48447 5.24327 1.44108 5.32747 1.42808C6.54127 1.20292 6.50592 1.17866 6.74321 0.163879C6.76371 0.096191 6.80552 0.052859 6.88983 0.0521392C6.97417 0.0514191 7.01669 0.0940309 7.03834 0.161359C7.29292 1.17194 7.25098 1.19686 8.47546 1.4012C8.55285 1.41282 8.60944 1.45532 8.61006 1.52895C8.61069 1.60261 8.55485 1.64607 8.47766 1.65898C7.25684 1.88425 7.27101 1.89639 7.06192 2.92321C7.04142 2.9909 6.99963 3.03423 6.9153 3.03495ZM10.3523 7.22846C10.2188 7.2296 10.1268 7.15672 10.1118 7.04638C9.84486 5.40983 9.78163 5.41037 7.83945 5.10167C7.71281 5.08431 7.62086 5.01145 7.61986 4.89485C7.61892 4.78437 7.70956 4.7038 7.83589 4.68431C9.7733 4.43453 9.8431 4.37868 10.0748 2.7072C10.0879 2.59663 10.1785 2.51606 10.312 2.51492C10.4385 2.51384 10.5306 2.59285 10.5456 2.70933C10.7915 4.35217 10.8899 4.3452 12.8179 4.64177C12.9446 4.66525 13.0366 4.73811 13.0375 4.84859C13.0385 4.97132 12.9478 5.03961 12.7933 5.05937C10.8844 5.34572 10.8004 5.38941 10.5825 7.03008C10.5695 7.15294 10.4788 7.22738 10.3523 7.22846ZM5.64617 14.0633C5.46346 14.0648 5.32896 13.9494 5.29244 13.784C4.76481 10.4249 4.21939 9.92011 0.40775 9.58437C0.210828 9.56764 0.076224 9.43989 0.0748616 9.28033C0.073499 9.12076 0.205955 8.99685 0.40251 8.97064C4.20787 8.56986 4.74458 8.05584 5.21477 4.68828C5.24847 4.52227 5.38103 4.41065 5.56373 4.40909C5.74644 4.40753 5.88088 4.51687 5.91039 4.68234C6.43802 8.04138 6.99045 8.5461 10.7951 8.8819C10.9991 8.9047 11.1336 9.02632 11.135 9.1859C11.1363 9.34545 11.0039 9.47548 10.8003 9.49563C7.0096 9.9638 6.48642 10.4163 5.98805 13.778C5.96138 13.944 5.82887 14.0617 5.64617 14.0633Z" fill="black"/>
<path d="M19.8125 15.7508C19.6467 15.7508 19.4878 15.8166 19.3706 15.9338C19.2533 16.0511 19.1875 16.21 19.1875 16.3758V18.8758C19.1875 19.0416 19.1217 19.2005 19.0044 19.3177C18.8872 19.4349 18.7283 19.5008 18.5625 19.5008H9.8125C9.64674 19.5008 9.48777 19.4349 9.37056 19.3177C9.25335 19.2005 9.1875 19.0416 9.1875 18.8758V12.882L12.8625 16.5633C13.2141 16.9144 13.6906 17.1116 14.1875 17.1116C14.6844 17.1116 15.1609 16.9144 15.5125 16.5633L16.5375 15.5383C16.6552 15.4206 16.7213 15.261 16.7213 15.0945C16.7213 14.9281 16.6552 14.7685 16.5375 14.6508C16.4198 14.5331 16.2602 14.467 16.0938 14.467C15.9273 14.467 15.7677 14.5331 15.65 14.6508L14.625 15.6758C14.5082 15.7903 14.3511 15.8545 14.1875 15.8545C14.0239 15.8545 13.8668 15.7903 13.75 15.6758L10.0687 12.0008H14.1875C14.3533 12.0008 14.5122 11.9349 14.6294 11.8177C14.7467 11.7005 14.8125 11.5416 14.8125 11.3758C14.8125 11.21 14.7467 11.0511 14.6294 10.9338C14.5122 10.8166 14.3533 10.7508 14.1875 10.7508H9.8125C9.31522 10.7508 8.83831 10.9483 8.48667 11.3C8.13504 11.6516 7.9375 12.1285 7.9375 12.6258V18.8758C7.9375 19.3731 8.13504 19.85 8.48667 20.2016C8.83831 20.5532 9.31522 20.7508 9.8125 20.7508H18.5625C19.0598 20.7508 19.5367 20.5532 19.8883 20.2016C20.24 19.85 20.4375 19.3731 20.4375 18.8758V16.3758C20.4375 16.21 20.3717 16.0511 20.2544 15.9338C20.1372 15.8166 19.9783 15.7508 19.8125 15.7508ZM20.8812 10.307L19.0062 8.43204C18.9468 8.37514 18.8767 8.33054 18.8 8.30079C18.6478 8.23828 18.4772 8.23828 18.325 8.30079C18.2483 8.33054 18.1782 8.37514 18.1188 8.43204L16.2437 10.307C16.1261 10.4247 16.0599 10.5844 16.0599 10.7508C16.0599 10.9172 16.1261 11.0769 16.2437 11.1945C16.3614 11.3122 16.5211 11.3783 16.6875 11.3783C16.8539 11.3783 17.0136 11.3122 17.1312 11.1945L17.9375 10.382V13.8758C17.9375 14.0415 18.0033 14.2005 18.1206 14.3177C18.2378 14.4349 18.3967 14.5008 18.5625 14.5008C18.7283 14.5008 18.8872 14.4349 19.0044 14.3177C19.1217 14.2005 19.1875 14.0415 19.1875 13.8758V10.382L19.9938 11.1945C20.0519 11.2531 20.121 11.2996 20.1971 11.3313C20.2733 11.3631 20.355 11.3794 20.4375 11.3794C20.52 11.3794 20.6017 11.3631 20.6779 11.3313C20.754 11.2996 20.8231 11.2531 20.8812 11.1945C20.9398 11.1364 20.9863 11.0673 21.0181 10.9912C21.0498 10.915 21.0661 10.8333 21.0661 10.7508C21.0661 10.6683 21.0498 10.5866 21.0181 10.5104C20.9863 10.4343 20.9398 10.3651 20.8812 10.307Z" fill="black"/>
</svg>
