<svg width="16" height="16" viewBox="0 0 16 16" fill="none" xmlns="http://www.w3.org/2000/svg">
<path d="M9.45455 5.81818H6.54545C6.35257 5.81818 6.16759 5.89481 6.0312 6.0312C5.89481 6.16759 5.81818 6.35257 5.81818 6.54545V15.2727C5.81818 15.4656 5.89481 15.6506 6.0312 15.787C6.16759 15.9234 6.35257 16 6.54545 16H9.45455C9.64743 16 9.83242 15.9234 9.96881 15.787C10.1052 15.6506 10.1818 15.4656 10.1818 15.2727V6.54545C10.1818 6.35257 10.1052 6.16759 9.96881 6.0312C9.83242 5.89481 9.64743 5.81818 9.45455 5.81818ZM8.72727 14.5455H7.27273V7.27273H8.72727V14.5455ZM15.2727 0H12.3636C12.1708 0 11.9858 0.0766231 11.8494 0.213013C11.713 0.349403 11.6364 0.534388 11.6364 0.727273V15.2727C11.6364 15.4656 11.713 15.6506 11.8494 15.787C11.9858 15.9234 12.1708 16 12.3636 16H15.2727C15.4656 16 15.6506 15.9234 15.787 15.787C15.9234 15.6506 16 15.4656 16 15.2727V0.727273C16 0.534388 15.9234 0.349403 15.787 0.213013C15.6506 0.0766231 15.4656 0 15.2727 0ZM14.5455 14.5455H13.0909V1.45455H14.5455V14.5455ZM3.63636 10.1818H0.727273C0.534388 10.1818 0.349403 10.2584 0.213013 10.3948C0.0766231 10.5312 0 10.7162 0 10.9091V15.2727C0 15.4656 0.0766231 15.6506 0.213013 15.787C0.349403 15.9234 0.534388 16 0.727273 16H3.63636C3.82925 16 4.01423 15.9234 4.15062 15.787C4.28701 15.6506 4.36364 15.4656 4.36364 15.2727V10.9091C4.36364 10.7162 4.28701 10.5312 4.15062 10.3948C4.01423 10.2584 3.82925 10.1818 3.63636 10.1818ZM2.90909 14.5455H1.45455V11.6364H2.90909V14.5455Z" fill="black"/>
</svg>
